<?xml version="1.0" encoding="utf-8"?>
<!-- Generator: Adobe Illustrator 27.0.1, SVG Export Plug-In . SVG Version: 6.00 Build 0)  -->
<svg version="1.1" id="Layer_1" xmlns="http://www.w3.org/2000/svg" xmlns:xlink="http://www.w3.org/1999/xlink" x="0px" y="0px"
	 viewBox="0 0 599.4094 387.1753" style="enable-background:new 0 0 599.4094 387.1753;" xml:space="preserve">
<style type="text/css">
	.st0{fill:#FFFFFF;}
</style>
<g>
	<g>
		<path class="st0" d="M23.4445,281.4403c0,18.234,9.5517,24.3111,22.5752,24.3111c9.9863,0,17.3661-3.4719,23.0099-8.6823
			l1.3026,1.3026c-7.8144,8.6823-19.5366,19.5366-35.1654,19.5366C6.0784,317.9084,0,298.8051,0,281.4403V30.0258
			c0-4.9817,2.9626-9.4862,7.5368-11.4595l14.605-6.3004h1.3026V281.4403z"/>
		<path class="st0" d="M125.4715,192.0062c16.4967,0,28.219,8.2464,36.468,18.6673v-2.6461c0-4.9817,2.9626-9.4863,7.5368-11.4595
			l14.605-6.3004h1.3026v91.1728c0,18.234,9.985,24.3111,21.7072,24.3111c9.985,0,17.366-3.4719,23.0098-8.6823l1.3026,1.3026
			c-7.8144,8.6823-19.5367,19.5366-35.1667,19.5366c-19.97,0-29.087-9.985-32.5615-21.7085
			c-11.2876,13.0262-24.3112,21.7085-42.5465,21.7085c-34.2974,0-55.1367-30.3909-55.1367-62.9511
			C65.9923,220.2252,92.0407,192.0062,125.4715,192.0062z M161.9396,281.4403v-66.859c-8.249-7.3824-18.234-12.1569-30.8242-12.1569
			c-23.4445,0-40.3759,18.6673-40.3759,51.2302c0,31.2576,16.9314,52.5328,39.5066,52.5328
			c16.0648,0,24.3125-6.0798,32.5615-13.8929C161.9396,288.8201,161.9396,285.3482,161.9396,281.4403z"/>
		<path class="st0" d="M301.304,22.6868h-1.3026c-19.102,0-36.9027,17.7981-36.9027,54.2687v119.3918h35.6001v0.8667l-3.4732,6.5131
			h-32.1269v97.2442c0,4.5547-2.4813,8.7478-6.4738,10.9398l-15.6681,8.6025h-1.3026V203.7271h-28.6537v-7.3797h28.6537V80.4275
			c0-33.4295,21.2739-63.3844,56.874-63.3844c19.7532,0,33.1348,11.0424,33.4246,26.8253
			c0.1898,10.3317-6.5133,19.8627-16.5424,22.3516c-15.2747,3.7907-28.6044-7.2813-28.6044-21.8272
			C284.8058,33.9744,291.7523,25.2921,301.304,22.6868z"/>
		<path class="st0" d="M354.7034,192.0062c36.468,0,65.991,27.7857,65.991,62.9511s-29.5229,62.9511-65.991,62.9511
			c-36.4694,0-65.991-27.7857-65.991-62.9511S318.234,192.0062,354.7034,192.0062z M354.7034,311.3953
			c21.7072,0,40.3759-22.5752,40.3759-56.438c0-33.8654-18.6687-56.4406-40.3759-56.4406
			c-21.7072,0-40.3759,22.5752-40.3759,56.4406C314.3275,288.8201,332.9962,311.3953,354.7034,311.3953z"/>
		<path class="st0" d="M522.2867,231.5128c0-18.67-13.4582-26.0497-28.6536-26.0497c-11.2876,0-20.8393,3.4745-29.9563,10.421
			v85.0873c0,4.5547-2.4813,8.7478-6.4738,10.9398l-15.668,8.6025h-1.3026V208.0275c0-4.9817,2.9626-9.4863,7.5369-11.4595
			l14.605-6.3004h1.3026v22.1419c11.7222-12.1569,25.6151-20.4033,44.7171-20.4033c25.6151,0,37.3373,17.798,37.3373,39.5066
			v50.7942c0,19.1033,9.985,29.0883,23.8778,29.0883c8.249,0,15.1955-3.0385,19.5367-6.9464
			c-2.1706,1.3026-5.2092,2.1719-8.2477,2.1719c-12.2189,0-22.0505-11.9398-18.2908-24.6216
			c1.8013-6.0755,6.6804-10.9588,12.754-12.7666C588.0481,265.4564,600,275.2939,600,287.5175
			c0,19.9726-18.6686,30.3909-39.9413,30.3909c-30.3909,0-37.772-21.2726-37.772-39.5066V231.5128z"/>
	</g>
	<g>
		<path class="st0" d="M26.026,373.7896h-5.3267l-2.2512-6.41H7.5356l-2.2089,6.41H0l9.874-27.067h6.4074L26.026,373.7896z
			 M13.0341,351.2699l-4.114,11.7368h8.1856L13.0341,351.2699z"/>
		<path class="st0" d="M44.1147,373.7896h-5.2845v-27.067c0,0,9.5702,0,9.4856,0c6.8407,0,10.4791,3.2473,10.4791,8.2279
			c0,3.855-2.164,6.5395-5.8473,7.7946l7.105,11.0445h-6.0216l-6.019-9.9163l-3.8973,0.2589V373.7896z M48.0119,359.8888
			c3.2473-0.1744,5.369-1.6461,5.369-4.5922c0-2.814-2.1217-4.1562-5.8895-4.1562c-0.0423,0-3.4217,0-3.4217,0v8.833
			L48.0119,359.8888z"/>
		<path class="st0" d="M84.6808,351.3571v22.4325h-5.2395v-22.4325H70.389v-4.6345h23.3441v4.6345H84.6808z"/>
		<path class="st0" d="M107.359,373.7896v-27.067h5.2395v27.067H107.359z"/>
		<path class="st0" d="M141.6076,366.3834c0-2.2512-2.0345-3.0756-6.019-4.1562c-3.8999-1.0833-8.4023-2.8166-8.4023-8.1433
			c0-4.8062,3.6806-8.0112,9.6996-8.0112c3.6806,0,6.7139,0.9089,9.3112,2.3806l-1.2973,4.4627
			c-2.3833-1.4294-5.4139-2.3384-7.969-2.3384c-3.1628,0-4.5473,1.3423-4.5473,3.205c0,2.2063,2.4256,3.0729,6.1485,4.069
			c4.0717,1.1256,8.2728,2.9884,8.2728,8.1433c0,4.9357-3.9422,8.4446-10.3073,8.4446c-3.5961,0-7.1895-0.9539-9.7445-2.5128
			l1.2128-4.5473c2.5101,1.5166,5.369,2.5999,8.619,2.5999C139.5282,369.9795,141.6076,368.55,141.6076,366.3834z"/>
		<path class="st0" d="M172.6882,351.3571v22.4325h-5.2395v-22.4325h-9.0523v-4.6345h23.3441v4.6345H172.6882z"/>
		<path class="st0" d="M200.5663,373.7896h-5.2845v-27.067c0,0,9.5702,0,9.4856,0c6.8407,0,10.4791,3.2473,10.4791,8.2279
			c0,3.855-2.164,6.5395-5.8472,7.7946l7.1049,11.0445h-6.0216l-6.019-9.9163l-3.8973,0.2589V373.7896z M204.4636,359.8888
			c3.2473-0.1744,5.369-1.6461,5.369-4.5922c0-2.814-2.1217-4.1562-5.8895-4.1562c-0.0423,0-3.4217,0-3.4217,0v8.833
			L204.4636,359.8888z"/>
		<path class="st0" d="M240.7414,363.3079v10.4817h-5.2395v-10.524l-9.4407-16.543h5.7151l6.41,11.6919l6.2806-11.6919h5.6729
			L240.7414,363.3079z"/>
	</g>
</g>
</svg>
